<svg xmlns="http://www.w3.org/2000/svg" width="385" height="350" viewBox="0 0 385 350">
    <defs>
        <linearGradient id="a" x1="3.102%" x2="101.481%" y1="15.186%" y2="28.794%">
            <stop offset="0%" stop-color="#553885"/>
            <stop offset="100%" stop-color="#93DAFF"/>
        </linearGradient>
        <linearGradient id="b" x1="7.748%" x2="106.303%" y1="21.638%" y2="73.316%">
            <stop offset="0%" stop-color="#D15BFF"/>
            <stop offset="100%" stop-color="#93DAFF"/>
        </linearGradient>
    </defs>
    <g fill="none" fill-rule="evenodd">
        <path fill="#EDEDED" d="M73.546 271.173c16.627 5 34.033 7.19 50.486 12.733 24.523 8.263 43.075 19.618 71.465 37.348 20.213 12.622 16.804 12.115 24.738 16.023 9.317 4.589 44.973 20.535 85.918 8.037 39.081-11.93 57.333-43.364 62.202-51.793 11.953-20.697 14.134-39.515 15.661-54.027 8.234-78.19-37.535-139.925-51.013-156.72-5.45-6.79-14.65-17.487-27.745-29.023-17.797-15.679-54.903-48.367-108.172-52.71-18.612-1.519-61.098-4.892-83.8 20.562-21.328 23.912-4.893 51.277-26.85 71.44-22.323 20.498-48.364.532-69.361 18.753-28.331 24.584-19.84 94.654 13.915 131.333 14.768 16.048 35.783 26.008 42.556 28.044"/>
        <path fill="#EDEDED" d="M31.908 78.005s24.633 13.49 38.966 0c8.369-7.878 11.7-21.582 13.022-31.622.971-7.37-5.008-13.851-12.396-13.356l-.179.012c-25.5 1.805-50.314 24.071-47.027 36.872.532 2.07 2.122 5.158 7.614 8.094"/>
        <path fill="url(#a)" d="M119.322 96.186l-17.586 27.527v51.691c.512 31.469 29.013 68.334 85.502 110.596 65.19-36.456 97.53-70.419 97.018-101.887l.006-67.104S224.228 87.649 200.485 60c-27.427 18.433-54.482 30.495-81.163 36.186z"/>
        <path fill="#9ED5EC" d="M186.516 286c64.335-36.5 96.25-70.505 95.745-102.012l.006-66.988-16.888 26.163L186.516 286z"/>
        <path fill="url(#b)" d="M101.736 123.267v57.462C102.496 224.316 186.853 289 186.853 289s80.21-43.834 79.45-87.42l.005-58.957C236.277 129.72 210.05 112.178 187.626 90c-27.229 18.55-55.859 29.638-85.89 33.267z"/>
        <path fill="#EDEDED" d="M172.6 250.518c-.026-41.049-.043-62.034-.052-62.956-.018-2.288-.507-3.7-2.654-5.093-6.618-4.284-8.483-18.706-5.594-43.266.714-1.056 3.558-2.872 8.532-5.448a28.857 28.857 0 0 1 8.574-2.864c13.325-2.193 26.569 5.245 31.525 17.708 4.99 12.549.53 26.76-10.837 34.039-1.736 1.11-2.466 2.228-2.288 4.23.19 2.144.14 4.25-2.567 5.209-.471.164-.998 2.156-1 3.04-.034 16.454-.08 31.956 0 48.412.009 1.903-.189 2.724-1.868 3.673-2.756 1.556-14.626 9.933-17.65 11.839l-4.122-8.523z"/>
        <path fill="#E146A2" d="M176.476 160.302c4.938.015 8.872-3.793 8.946-8.653.069-4.769-4.262-9.123-8.992-9.04-4.829.085-8.725 4.086-8.707 8.938.02 4.938 3.82 8.739 8.753 8.755m-.053 99.19v-66.099l-2.1.281s-.067 41.913-.07 58.313v2.564c-.146.047-.298.093-.447.138-1.222-2.096-2.602-4.118-3.585-6.32-.403-.908-.185-2.279.159-3.302.974-2.92 1.114-5.658-.838-8.26-1.51-2.009-1.467-4.093 0-6.098 1.832-2.506 1.979-4.933-.09-7.38-1.963-2.318-1.928-4.84-.486-7.343 1.173-2.042.923-3.863-.479-5.6-2.49-3.081-2.505-6.695-2.32-10.365.058-1.16-.085-1.908-1.411-2.68-1.03-.597-1.683-2.621-1.697-4.015-.018-2.305-.503-3.727-2.635-5.13-9.854-6.474-14.368-18.29-11.86-30.1 2.324-10.95 11.92-19.957 23.29-21.857 13.227-2.209 26.374 5.284 31.294 17.838 4.953 12.64.526 26.956-10.758 34.289-1.723 1.119-2.448 2.245-2.271 4.26.189 2.16.138 4.283-2.548 5.248-.468.165-.633 1.675-.636 2.564-.033 16.576-.055 33.154.025 49.73.009 1.917-.528 3.088-2.196 4.044-2.735 1.567-5.339 3.36-8.341 5.28"/>
    </g>
</svg>
